# xmcd
#
# Track frame offsets: 
#        150
#        20863
#        51802
#        70902
#        88497
#        107078
#        126993
#        144749
#        180870
#        210130
#
# Disc length: 3106 seconds
#
# Revision: 0
# Processed by: cddbd v1.5.2PL0 Copyright (c) Steve Scherf et al.
# Submitted via: ExactAudioCopy v0.99pb5
#
DISCID=8f0c200a
DTITLE=Blue Streak Blues Band - Old Dog New Trick
DYEAR=2004
DGENRE=Blues
TTITLE0=Sho' Look Good To Me
TTITLE1=Broken Heart
TTITLE2=Same Thing
TTITLE3=Someone Else
TTITLE4=Brand New Day
TTITLE5=One Way Out
TTITLE6=Al's Jam
TTITLE7=Loan Me A Dime
TTITLE8=Inner City Blues
TTITLE9=She Caught The Katy
EXTD=
EXTT0=
EXTT1=
EXTT2=
EXTT3=
EXTT4=
EXTT5=
EXTT6=
EXTT7=
EXTT8=
EXTT9=
PLAYORDER=
